<?xml version="1.0" encoding="UTF-8"?>
<!DOCTYPE svg
PUBLIC "-//W3C//DTD SVG 1.1//EN"
       "http://www.w3.org/Graphics/SVG/1.1/DTD/svg11.dtd">
<svg viewBox="248 124 999 394" width="751px" height="270px" xmlns="http://www.w3.org/2000/svg" version="1.1">
   <line x1="342" y1="172" x2="352" y2="172" style="stroke:#cb0;stroke-width:1;"/>
   <line x1="842" y1="169" x2="852" y2="169" style="stroke:#cb0;stroke-width:1;"/>
   <line x1="352" y1="172" x2="842" y2="169" style="stroke:#cb0;stroke-width:1;"/>
   <line x1="349.5" y1="172" x2="345.96446609407" y2="175.53553390593" style="stroke:#cb0;stroke-width:2;"/>
   <line x1="349.5" y1="172" x2="345.96446609407" y2="168.46446609407" style="stroke:#cb0;stroke-width:2;"/>
   <line x1="847" y1="169" x2="843.46446609407" y2="172.53553390593" style="stroke:#cb0;stroke-width:2;"/>
   <line x1="847" y1="169" x2="843.46446609407" y2="165.46446609407" style="stroke:#cb0;stroke-width:2;"/>
   <rect width="79" height="20" x="263" y="142" style="fill:#007;stroke:black;"/>
   <text width="79" height="20" x="268" y="156" style="fill:#fff;" font-family="Arial" font-size="16px"> agenda</text>
   <rect width="79" height="20" x="263" y="162" style="fill:#aea;stroke:black;"/>
   <text width="79" height="20" x="268" y="176" style="fill:black;" font-family="Arial" font-size="16px">id</text>
   <rect width="79" height="20" x="263" y="182" style="fill:none;stroke:black;"/>
   <text width="79" height="20" x="268" y="196" style="fill:black;" font-family="Arial" font-size="16px">tipo</text>
   <rect width="79" height="20" x="263" y="202" style="fill:none;stroke:black;"/>
   <text width="79" height="20" x="268" y="216" style="fill:black;" font-family="Arial" font-size="16px">nombres</text>
   <rect width="79" height="20" x="263" y="222" style="fill:none;stroke:black;"/>
   <text width="79" height="20" x="268" y="236" style="fill:black;" font-family="Arial" font-size="16px">apellidos</text>
   <rect width="79" height="20" x="263" y="242" style="fill:none;stroke:black;"/>
   <text width="79" height="20" x="268" y="256" style="fill:black;" font-family="Arial" font-size="16px">fecha_cita</text>
   <rect width="79" height="20" x="263" y="262" style="fill:none;stroke:black;"/>
   <text width="79" height="20" x="268" y="276" style="fill:black;" font-family="Arial" font-size="16px">estado</text>
   <rect width="132" height="20" x="852" y="139" style="fill:#007;stroke:black;"/>
   <text width="132" height="20" x="857" y="153" style="fill:#fff;" font-family="Arial" font-size="16px"> pacientes_eps</text>
   <rect width="132" height="20" x="852" y="159" style="fill:#aea;stroke:black;"/>
   <text width="132" height="20" x="857" y="173" style="fill:black;" font-family="Arial" font-size="16px">id</text>
   <rect width="132" height="20" x="852" y="179" style="fill:none;stroke:black;"/>
   <text width="132" height="20" x="857" y="193" style="fill:black;" font-family="Arial" font-size="16px">tipo</text>
   <rect width="132" height="20" x="852" y="199" style="fill:none;stroke:black;"/>
   <text width="132" height="20" x="857" y="213" style="fill:black;" font-family="Arial" font-size="16px">nombres</text>
   <rect width="132" height="20" x="852" y="219" style="fill:none;stroke:black;"/>
   <text width="132" height="20" x="857" y="233" style="fill:black;" font-family="Arial" font-size="16px">apellidos</text>
   <rect width="132" height="20" x="852" y="239" style="fill:none;stroke:black;"/>
   <text width="132" height="20" x="857" y="253" style="fill:black;" font-family="Arial" font-size="16px">edad</text>
   <rect width="132" height="20" x="852" y="259" style="fill:none;stroke:black;"/>
   <text width="132" height="20" x="857" y="273" style="fill:black;" font-family="Arial" font-size="16px">telefono_fijo</text>
   <rect width="132" height="20" x="852" y="279" style="fill:none;stroke:black;"/>
   <text width="132" height="20" x="857" y="293" style="fill:black;" font-family="Arial" font-size="16px">telefono_celular</text>
   <rect width="132" height="20" x="852" y="299" style="fill:none;stroke:black;"/>
   <text width="132" height="20" x="857" y="313" style="fill:black;" font-family="Arial" font-size="16px">correo</text>
   <rect width="132" height="20" x="852" y="319" style="fill:none;stroke:black;"/>
   <text width="132" height="20" x="857" y="333" style="fill:black;" font-family="Arial" font-size="16px">fecha_nacimiento</text>
   <rect width="132" height="20" x="852" y="339" style="fill:none;stroke:black;"/>
   <text width="132" height="20" x="857" y="353" style="fill:black;" font-family="Arial" font-size="16px">EPS</text>
   <rect width="132" height="20" x="852" y="359" style="fill:none;stroke:black;"/>
   <text width="132" height="20" x="857" y="373" style="fill:black;" font-family="Arial" font-size="16px">categoria</text>
</svg>
